# xmcd CD database file
#
# Track frame offsets:
#	150
#	49709
#	101122
#	138257
#	170973
#	183493
#	216228
#	243112
#	270810
#
# Disc length: 4026 seconds
#
# Revision: 0
# Processed by: cddbd v1.5.1PL0 Copyright (c) Steve Scherf et al.
# Submitted via: CDex 1.60beta1
#
DISCID=7d0fb809
DTITLE=All Star Reunion Concert - One Night With Blue Note
DYEAR=1985
DGENRE=Jazz
TTITLE0=Canteloupe Island
TTITLE1=Recorda-Me
TTITLE2=Little's B Poem
TTITLE3=Summertime
TTITLE4=weet And Lovely
TTITLE5=Appointment In Ghana
TTITLE6=Blues Walk
TTITLE7=The Jumpin' Blues
TTITLE8=Scratch My Back
EXTD=YEAR: 1985
EXTT0=
EXTT1=
EXTT2=
EXTT3=
EXTT4=
EXTT5=
EXTT6=
EXTT7=
EXTT8=
PLAYORDER=
